<?xml version="1.0" standalone="no"?><!DOCTYPE svg PUBLIC "-//W3C//DTD SVG 1.1//EN" "http://www.w3.org/Graphics/SVG/1.1/DTD/svg11.dtd"><svg t="1521508789752" class="icon" style="" viewBox="0 0 1024 1024" version="1.1" xmlns="http://www.w3.org/2000/svg" p-id="3348" xmlns:xlink="http://www.w3.org/1999/xlink" width="200" height="200"><defs><style type="text/css"></style></defs><path d="M914.75 466.75L832 384V256a64.19 64.19 0 0 0-64-64H640l-82.75-82.75a64.19 64.19 0 0 0-90.51 0L384 192H256a64.19 64.19 0 0 0-64 64v128l-82.75 82.75a64.19 64.19 0 0 0 0 90.51L192 640v128a64.19 64.19 0 0 0 64 64h128l82.75 82.75a64.19 64.19 0 0 0 90.51 0L640 832h128a64.19 64.19 0 0 0 64-64V640l82.75-82.75a64.19 64.19 0 0 0 0-90.5zM512 736L320 384h96l96 192 96-192h96z" p-id="3349"></path></svg>