<?xml version="1.0" standalone="no"?><!DOCTYPE svg PUBLIC "-//W3C//DTD SVG 1.1//EN" "http://www.w3.org/Graphics/SVG/1.1/DTD/svg11.dtd"><svg t="1521507506093" class="icon" style="" viewBox="0 0 1024 1024" version="1.1" xmlns="http://www.w3.org/2000/svg" p-id="1226" xmlns:xlink="http://www.w3.org/1999/xlink" width="200" height="200"><defs><style type="text/css"></style></defs><path d="M277.333333 448h469.333334v-42.666667H277.333333v42.666667z m0-106.666667h469.333334v-42.666666H277.333333v42.666666z m128-149.333333h-128v42.666667h128V192z m569.6 260.266667l-98.133333-85.333334V64c0-12.8-8.533333-21.333333-21.333333-21.333333H170.666667c-12.8 0-21.333333 8.533333-21.333334 21.333333v309.333333l-98.133333 78.933334c-6.4 4.266667-8.533333 10.666667-8.533333 17.066666v490.666667c0 2.133333 0 4.266667 2.133333 6.4 0 0 0 2.133333 2.133333 2.133333 0 2.133333 2.133333 2.133333 2.133334 4.266667l2.133333 2.133333c2.133333 2.133333 2.133333 2.133333 4.266667 2.133334 0 0 2.133333 0 2.133333 2.133333 2.133333 2.133333 4.266667 2.133333 6.4 2.133333h896c2.133333 0 4.266667 0 8.533333-2.133333 0 0 2.133333 0 2.133334-2.133333 2.133333 0 2.133333-2.133333 4.266666-2.133334l2.133334-2.133333c2.133333-2.133333 2.133333-2.133333 2.133333-4.266667 0 0 0-2.133333 2.133333-2.133333 0-2.133333 2.133333-4.266667 2.133334-6.4V469.333333c-2.133333-6.4-4.266667-12.8-8.533334-17.066666zM874.666667 424.533333l51.2 42.666667-51.2 34.133333v-76.8z m-725.333334 4.266667v74.666667L100.266667 469.333333 149.333333 428.8zM85.333333 917.333333V509.866667L369.066667 704 85.333333 917.333333z m326.4-234.666666L192 531.2V85.333333h640v445.866667L612.266667 682.666667h-200.533334zM938.666667 917.333333L654.933333 704 938.666667 509.866667V917.333333z" p-id="1227"></path></svg>