<?xml version="1.0" standalone="no"?><!DOCTYPE svg PUBLIC "-//W3C//DTD SVG 1.1//EN" "http://www.w3.org/Graphics/SVG/1.1/DTD/svg11.dtd"><svg t="1521508732430" class="icon" style="" viewBox="0 0 1024 1024" version="1.1" xmlns="http://www.w3.org/2000/svg" p-id="3233" xmlns:xlink="http://www.w3.org/1999/xlink" width="200" height="200"><defs><style type="text/css"></style></defs><path d="M512 128a256 256 0 0 1 256 256v352H256V384a256 256 0 0 1 256-256z" p-id="3234"></path><path d="M288 608h448a160 160 0 0 1 160 160H128a160 160 0 0 1 160-160zM448 64h128v96H448zM512 960a160 160 0 0 0 160-160H352a160 160 0 0 0 160 160z" p-id="3235"></path></svg>